<svg xmlns="http://www.w3.org/2000/svg" xmlns:xlink="http://www.w3.org/1999/xlink" width="500" zoomAndPan="magnify" viewBox="0 0 375 374.999991" height="500" preserveAspectRatio="xMidYMid meet" version="1.0"><path fill="#53c1de" d="M 205.488281 170.976562 C 205.488281 161.296875 197.394531 153.445312 187.40625 153.445312 C 177.421875 153.445312 169.324219 161.296875 169.324219 170.976562 C 169.324219 180.660156 177.421875 188.511719 187.40625 188.511719 C 197.394531 188.511719 205.488281 180.660156 205.488281 170.976562 Z M 205.488281 170.976562 " fill-opacity="1" fill-rule="nonzero"/><path fill="#53c1de" d="M 246.132812 138.429688 C 249.953125 123.382812 254.753906 95.484375 237.832031 86.023438 C 220.992188 76.605469 199.074219 94.652344 187.5 105.484375 C 175.960938 94.761719 153.429688 76.792969 136.523438 86.28125 C 119.6875 95.730469 124.878906 123.167969 128.78125 138.308594 C 113.078125 142.632812 86.15625 151.945312 86.15625 170.976562 C 86.15625 189.957031 113.050781 200.089844 128.660156 204.410156 C 124.742188 219.632812 119.8125 246.679688 136.667969 256.109375 C 153.640625 265.59375 176.101562 248.054688 187.78125 237.101562 C 199.429688 248 221.132812 265.65625 237.980469 256.199219 C 254.878906 246.714844 250.476562 219.191406 246.574219 203.964844 C 261.707031 199.632812 288.65625 189.71875 288.65625 170.976562 C 288.65625 152.128906 261.589844 142.738281 246.132812 138.429688 Z M 244.214844 195.894531 C 241.652344 188.027344 238.195312 179.660156 233.960938 171.019531 C 238 162.582031 241.328125 154.324219 243.816406 146.507812 C 255.148438 149.695312 280.007812 156.976562 280.007812 170.976562 C 280.007812 185.113281 256.152344 192.460938 244.214844 195.894531 Z M 233.644531 248.941406 C 221.074219 255.996094 202.40625 239.109375 193.804688 231.085938 C 199.511719 225.035156 205.214844 218 210.777344 210.1875 C 220.570312 209.347656 229.816406 207.96875 238.203125 206.089844 C 240.953125 216.863281 246.269531 241.855469 233.644531 248.941406 Z M 140.992188 248.839844 C 128.421875 241.8125 134.167969 217.679688 137.050781 206.464844 C 145.34375 208.246094 154.523438 209.523438 164.339844 210.296875 C 169.941406 217.941406 175.808594 224.964844 181.722656 231.121094 C 174.414062 237.972656 153.621094 255.902344 140.992188 248.839844 Z M 94.808594 170.976562 C 94.808594 156.789062 119.515625 149.5625 131.105469 146.386719 C 133.640625 154.378906 136.964844 162.734375 140.976562 171.183594 C 136.910156 179.757812 133.539062 188.246094 130.984375 196.332031 C 119.933594 193.265625 94.808594 185.175781 94.808594 170.976562 Z M 140.855469 93.539062 C 153.476562 86.457031 173.0625 103.707031 181.4375 111.472656 C 175.558594 117.597656 169.742188 124.570312 164.1875 132.171875 C 154.664062 133.027344 145.546875 134.398438 137.167969 136.242188 C 134.023438 124.03125 128.25 100.617188 140.855469 93.539062 Z M 216.96875 141.285156 C 223.429688 142.078125 229.617188 143.128906 235.429688 144.414062 C 233.6875 149.839844 231.511719 155.507812 228.949219 161.320312 C 225.238281 154.492188 221.25 147.796875 216.96875 141.285156 Z M 187.503906 117.464844 C 191.492188 121.65625 195.488281 126.335938 199.421875 131.414062 C 191.445312 131.046875 183.460938 131.046875 175.488281 131.410156 C 179.421875 126.378906 183.453125 121.707031 187.503906 117.464844 Z M 145.9375 161.316406 C 143.417969 155.523438 141.265625 149.828125 139.503906 144.328125 C 145.28125 143.074219 151.441406 142.046875 157.863281 141.269531 C 153.566406 147.765625 149.585938 154.457031 145.9375 161.316406 Z M 158.046875 201.285156 C 151.414062 200.566406 145.160156 199.59375 139.382812 198.375 C 141.171875 192.777344 143.375 186.960938 145.949219 181.042969 C 149.648438 187.972656 153.6875 194.726562 158.046875 201.285156 Z M 187.742188 225.082031 C 183.644531 220.792969 179.554688 216.050781 175.558594 210.945312 C 183.578125 211.25 191.613281 211.253906 199.632812 210.90625 C 195.6875 216.101562 191.707031 220.851562 187.742188 225.082031 Z M 229.03125 180.742188 C 231.738281 186.722656 234.019531 192.507812 235.832031 198.011719 C 229.960938 199.3125 223.621094 200.359375 216.941406 201.132812 C 221.257812 194.5 225.308594 187.703125 229.03125 180.742188 Z M 205.953125 202.152344 C 193.683594 203 181.34375 202.992188 169.074219 202.222656 C 162.101562 192.347656 155.894531 181.960938 150.535156 171.179688 C 155.867188 160.421875 162.03125 150.058594 168.96875 140.199219 C 181.246094 139.296875 193.601562 139.296875 205.882812 140.203125 C 212.761719 150.0625 218.914062 160.398438 224.367188 171.0625 C 218.976562 181.8125 212.785156 192.199219 205.953125 202.152344 Z M 233.511719 93.289062 C 246.136719 100.351562 240.515625 125.425781 237.757812 136.328125 C 229.359375 134.449219 220.234375 133.050781 210.683594 132.179688 C 205.117188 124.5 199.351562 117.511719 193.566406 111.46875 C 202.050781 103.535156 221.007812 86.300781 233.511719 93.289062 Z M 233.511719 93.289062 " fill-opacity="1" fill-rule="evenodd"/></svg>